<svg width="57" height="56" viewBox="0 0 57 56" fill="none" xmlns="http://www.w3.org/2000/svg">
<path d="M0.65625 28C0.65625 12.536 13.1923 0 28.6562 0C44.1202 0 56.6562 12.536 56.6562 28C56.6562 43.464 44.1202 56 28.6562 56C13.1923 56 0.65625 43.464 0.65625 28Z" fill="#FFECEC"/>
<path d="M0.65625 28C0.65625 12.536 13.1923 0 28.6562 0C44.1202 0 56.6562 12.536 56.6562 28C56.6562 43.464 44.1202 56 28.6562 56C13.1923 56 0.65625 43.464 0.65625 28Z" stroke="#E5E7EB"/>
<path d="M18.1562 16H39.1562V40H18.1562V16Z" stroke="#E5E7EB"/>
<g clip-path="url(#clip0_593_9769)">
<path d="M22.2063 16.2578L21.0531 18.2312C20.875 18.5359 20.7813 18.8875 20.7813 19.2437V19.375C20.7813 20.4109 21.6203 21.25 22.6563 21.25C23.6922 21.25 24.5313 20.4109 24.5313 19.375V19.2437C24.5313 18.8875 24.4375 18.5406 24.2594 18.2312L23.1063 16.2578C23.0125 16.0984 22.8438 16 22.6563 16C22.4688 16 22.3 16.0984 22.2063 16.2578ZM28.2063 16.2578L27.0531 18.2312C26.875 18.5359 26.7813 18.8875 26.7813 19.2437V19.375C26.7813 20.4109 27.6203 21.25 28.6563 21.25C29.6922 21.25 30.5313 20.4109 30.5313 19.375V19.2437C30.5313 18.8875 30.4375 18.5406 30.2594 18.2312L29.1063 16.2578C29.0125 16.0984 28.8438 16 28.6563 16C28.4688 16 28.3 16.0984 28.2063 16.2578ZM33.0531 18.2312C32.875 18.5359 32.7813 18.8875 32.7813 19.2437V19.375C32.7813 20.4109 33.6203 21.25 34.6563 21.25C35.6922 21.25 36.5313 20.4109 36.5313 19.375V19.2437C36.5313 18.8875 36.4375 18.5406 36.2594 18.2312L35.1063 16.2578C35.0125 16.0984 34.8438 16 34.6563 16C34.4688 16 34.3 16.0984 34.2063 16.2578L33.0531 18.2312ZM24.1563 24.25C24.1563 23.4203 23.4859 22.75 22.6563 22.75C21.8266 22.75 21.1563 23.4203 21.1563 24.25V26.5C19.5016 26.5 18.1562 27.8453 18.1562 29.5V32.8281C18.5453 33.0719 19.0047 33.25 19.5063 33.25C20.1391 33.25 20.7813 32.9641 21.3063 32.6219C21.5594 32.4578 21.7703 32.2891 21.9156 32.1672C21.9859 32.1062 22.0422 32.0547 22.0797 32.0219C22.0984 32.0031 22.1125 31.9938 22.1172 31.9844L22.1219 31.9797C22.2672 31.8297 22.4688 31.75 22.6797 31.7547C22.8906 31.7594 23.0828 31.8531 23.2234 32.0078L23.2281 32.0125C23.2328 32.0172 23.2469 32.0312 23.2609 32.0453C23.2938 32.0781 23.3406 32.125 23.4063 32.1859C23.5375 32.3078 23.725 32.4719 23.9594 32.6312C24.4375 32.9641 25.0375 33.2453 25.6609 33.2453C26.2844 33.2453 26.8844 32.9641 27.3625 32.6312C27.5969 32.4672 27.7844 32.3078 27.9156 32.1859C27.9813 32.125 28.0281 32.0781 28.0609 32.0453C28.075 32.0312 28.0891 32.0172 28.0938 32.0125L28.0984 32.0078C28.2391 31.8438 28.4453 31.7547 28.6609 31.7547C28.8766 31.7547 29.0828 31.8484 29.2234 32.0078L29.2281 32.0125C29.2328 32.0172 29.2469 32.0312 29.2609 32.0453C29.2938 32.0781 29.3406 32.125 29.4063 32.1859C29.5375 32.3078 29.725 32.4719 29.9594 32.6312C30.4375 32.9641 31.0375 33.2453 31.6609 33.2453C32.2844 33.2453 32.8844 32.9641 33.3625 32.6312C33.5969 32.4672 33.7844 32.3078 33.9156 32.1859C33.9813 32.125 34.0281 32.0781 34.0609 32.0453C34.075 32.0312 34.0891 32.0172 34.0938 32.0125L34.0984 32.0078C34.2344 31.8484 34.4313 31.7594 34.6422 31.7547C34.8531 31.75 35.05 31.8297 35.2 31.9797L35.2047 31.9844C35.2141 31.9938 35.2234 32.0031 35.2422 32.0219C35.2797 32.0547 35.3313 32.1062 35.4063 32.1672C35.5516 32.2891 35.7578 32.4578 36.0156 32.6219C36.5406 32.9641 37.1828 33.25 37.8156 33.25C38.3172 33.25 38.7766 33.0672 39.1656 32.8281V29.5C39.1656 27.8453 37.8203 26.5 36.1656 26.5V24.25C36.1656 23.4203 35.4953 22.75 34.6656 22.75C33.8359 22.75 33.1656 23.4203 33.1656 24.25V26.5H30.1563V24.25C30.1563 23.4203 29.4859 22.75 28.6563 22.75C27.8266 22.75 27.1563 23.4203 27.1563 24.25V26.5H24.1563V24.25ZM39.1563 34.4969C38.7578 34.6516 38.3031 34.75 37.8063 34.75C36.7516 34.75 35.8188 34.2859 35.1906 33.8781C34.9984 33.7516 34.825 33.625 34.6797 33.5125C34.5484 33.625 34.3938 33.7469 34.2203 33.8641C33.6156 34.2813 32.7156 34.75 31.6563 34.75C30.5969 34.75 29.6969 34.2813 29.0969 33.8641C28.9328 33.7516 28.7828 33.6344 28.6563 33.5266C28.5297 33.6344 28.3797 33.7469 28.2156 33.8641C27.6156 34.2813 26.7156 34.75 25.6563 34.75C24.5969 34.75 23.6969 34.2813 23.0969 33.8641C22.9234 33.7422 22.7688 33.6203 22.6375 33.5125C22.4922 33.625 22.3188 33.7516 22.1266 33.8781C21.4938 34.2859 20.5609 34.75 19.5063 34.75C19.0094 34.75 18.5547 34.6469 18.1562 34.4969V38.5C18.1562 39.3297 18.8266 40 19.6563 40H37.6563C38.4859 40 39.1563 39.3297 39.1563 38.5V34.4969Z" fill="#FF6868"/>
</g>
<defs>
<clipPath id="clip0_593_9769">
<path d="M18.1562 16H39.1562V40H18.1562V16Z" fill="white"/>
</clipPath>
</defs>
</svg>
