<svg width="56" height="56" viewBox="0 0 56 56" fill="none" xmlns="http://www.w3.org/2000/svg">
<path d="M0 28C0 12.536 12.536 0 28 0C43.464 0 56 12.536 56 28C56 43.464 43.464 56 28 56C12.536 56 0 43.464 0 28Z" fill="#FFECEC"/>
<path d="M0 28C0 12.536 12.536 0 28 0C43.464 0 56 12.536 56 28C56 43.464 43.464 56 28 56C12.536 56 0 43.464 0 28Z" stroke="#E5E7EB"/>
<path d="M13 16H43V40H13V16Z" stroke="#E5E7EB"/>
<g clip-path="url(#clip0_593_9766)">
<path d="M15.25 16C14.0078 16 13 17.0078 13 18.25V33.25C13 34.4922 14.0078 35.5 15.25 35.5H16C16 37.9844 18.0156 40 20.5 40C22.9844 40 25 37.9844 25 35.5H31C31 37.9844 33.0156 40 35.5 40C37.9844 40 40 37.9844 40 35.5H41.5C42.3297 35.5 43 34.8297 43 34C43 33.1703 42.3297 32.5 41.5 32.5V29.5V28V27.1234C41.5 26.3266 41.1859 25.5625 40.6234 25L37 21.3766C36.4375 20.8141 35.6734 20.5 34.8766 20.5H32.5V18.25C32.5 17.0078 31.4922 16 30.25 16H15.25ZM32.5 23.5H34.8766L38.5 27.1234V28H32.5V23.5ZM18.25 35.5C18.25 34.9033 18.4871 34.331 18.909 33.909C19.331 33.4871 19.9033 33.25 20.5 33.25C21.0967 33.25 21.669 33.4871 22.091 33.909C22.5129 34.331 22.75 34.9033 22.75 35.5C22.75 36.0967 22.5129 36.669 22.091 37.091C21.669 37.5129 21.0967 37.75 20.5 37.75C19.9033 37.75 19.331 37.5129 18.909 37.091C18.4871 36.669 18.25 36.0967 18.25 35.5ZM35.5 33.25C36.0967 33.25 36.669 33.4871 37.091 33.909C37.5129 34.331 37.75 34.9033 37.75 35.5C37.75 36.0967 37.5129 36.669 37.091 37.091C36.669 37.5129 36.0967 37.75 35.5 37.75C34.9033 37.75 34.331 37.5129 33.909 37.091C33.4871 36.669 33.25 36.0967 33.25 35.5C33.25 34.9033 33.4871 34.331 33.909 33.909C34.331 33.4871 34.9033 33.25 35.5 33.25Z" fill="#FF6868"/>
</g>
<defs>
<clipPath id="clip0_593_9766">
<path d="M13 16H43V40H13V16Z" fill="white"/>
</clipPath>
</defs>
</svg>
