<svg width="57" height="56" viewBox="0 0 57 56" fill="none" xmlns="http://www.w3.org/2000/svg">
<path d="M0.328125 28C0.328125 12.536 12.8642 0 28.3281 0C43.7921 0 56.3281 12.536 56.3281 28C56.3281 43.464 43.7921 56 28.3281 56C12.8642 56 0.328125 43.464 0.328125 28Z" fill="#FFECEC"/>
<path d="M0.328125 28C0.328125 12.536 12.8642 0 28.3281 0C43.7921 0 56.3281 12.536 56.3281 28C56.3281 43.464 43.7921 56 28.3281 56C12.8642 56 0.328125 43.464 0.328125 28Z" stroke="#E5E7EB"/>
<path d="M17.8281 16H38.8281V40H17.8281V16Z" stroke="#E5E7EB"/>
<g clip-path="url(#clip0_593_9772)">
<path d="M17.8281 19.7502V26.758C17.8281 27.5549 18.1422 28.319 18.7047 28.8815L26.9547 37.1315C28.1266 38.3033 30.025 38.3033 31.1969 37.1315L37.4547 30.8736C38.6266 29.7018 38.6266 27.8033 37.4547 26.6315L29.2047 18.3815C28.6422 17.819 27.8781 17.5049 27.0813 17.5049H20.0781C18.8359 17.5002 17.8281 18.508 17.8281 19.7502ZM23.0781 21.2502C23.476 21.2502 23.8575 21.4082 24.1388 21.6896C24.4201 21.9709 24.5781 22.3524 24.5781 22.7502C24.5781 23.148 24.4201 23.5296 24.1388 23.8109C23.8575 24.0922 23.476 24.2502 23.0781 24.2502C22.6803 24.2502 22.2988 24.0922 22.0175 23.8109C21.7362 23.5296 21.5781 23.148 21.5781 22.7502C21.5781 22.3524 21.7362 21.9709 22.0175 21.6896C22.2988 21.4082 22.6803 21.2502 23.0781 21.2502Z" fill="#FF6868"/>
</g>
<defs>
<clipPath id="clip0_593_9772">
<path d="M17.8281 16H38.8281V40H17.8281V16Z" fill="white"/>
</clipPath>
</defs>
</svg>
